<?xml version="1.0" encoding="utf-8"?>
<svg version="1.1" xmlns:xlink="http://www.w3.org/1999/xlink" width="13px" height="24px" xmlns="http://www.w3.org/2000/svg">
  <g transform="matrix(1 0 0 1 -704 -2747 )">
    <path d="M 12.7766323024055 1.44288577154308  C 12.9255441008018 1.60320641282565  13 1.7875751503006  13 1.99599198396794  C 13 2.20440881763527  12.9255441008018 2.38877755511022  12.7766323024055 2.54909819639279  L 3.99828178694158 12  L 12.7766323024055 21.4509018036072  C 12.9255441008018 21.6112224448898  13 21.7955911823647  13 22.0040080160321  C 13 22.2124248496994  12.9255441008018 22.3967935871743  12.7766323024055 22.5571142284569  L 11.659793814433 23.7595190380762  C 11.5108820160367 23.9198396793587  11.3396334478809 24  11.1460481099656 24  C 10.9524627720504 24  10.7812142038946 23.9198396793587  10.6323024054983 23.7595190380762  L 0.223367697594502 12.5531062124248  C 0.0744558991981673 12.3927855711423  0 12.2084168336673  0 12  C 0 11.7915831663327  0.0744558991981673 11.6072144288577  0.223367697594502 11.4468937875752  L 10.6323024054983 0.240480961923848  C 10.7812142038946 0.0801603206412818  10.9524627720504 0  11.1460481099656 0  C 11.3396334478809 0  11.5108820160367 0.0801603206412818  11.659793814433 0.240480961923848  L 12.7766323024055 1.44288577154308  Z " fill-rule="nonzero" fill="#000000" stroke="none" transform="matrix(1 0 0 1 704 2747 )" />
  </g>
</svg>