<?xml version="1.0" encoding="utf-8"?>
<svg version="1.1" xmlns:xlink="http://www.w3.org/1999/xlink" width="39px" height="50px" xmlns="http://www.w3.org/2000/svg">
  <g transform="matrix(1 0 0 1 -322 -3107 )">
    <path d="M 17.1328125 4.67354910714286  C 16.5546875 3.93880208333333  15.84375 3.57142857142857  15 3.57142857142857  C 14.171875 3.57142857142857  13.46484375 3.92020089285715  12.87890625 4.61774553571428  C 12.29296875 5.31529017857143  12 6.15699404761904  12 7.14285714285715  L 12 21.4285714285714  L 12 32.1428571428571  L 8.4609375 26.5066964285714  C 7.8203125 25.5022321428571  6.984375 25  5.953125 25  C 5.140625 25  4.4453125 25.3534226190476  3.8671875 26.0602678571429  C 3.2890625 26.7671130952381  3 27.6041666666667  3 28.5714285714286  C 3 29.3712797619048  3.203125 30.0874255952381  3.609375 30.7198660714286  L 12.609375 45.0055803571429  C 13.203125 45.9542410714286  14 46.4285714285714  15 46  L 31.828125 46  C 32.171875 46.4285714285714  32.48046875 46.3030133928571  32.75390625 46.0518973214286  C 33.02734375 45.80078125  33.203125 45.4799107142857  33.28125 45.0892857142857  L 35.4375 34.8214285714286  C 35.8125 33.0357142857143  36 31.2313988095238  36 29.4084821428571  L 36 23.3537946428571  C 36 22.5911458333333  35.78125 21.9308035714286  35.34375 21.3727678571429  C 34.90625 20.8147321428571  34.375 20.5357142857143  33.75 20.5357142857143  C 33.125 20.5357142857143  32.59375 20.7961309523809  32.15625 21.3169642857143  C 31.71875 21.8377976190476  31.5 22.4702380952381  31.5 23.2142857142857  L 30.75 23.2142857142857  L 30.75 21.5122767857143  C 30.75 20.6194196428571  30.5 19.8614211309524  30 19.23828125  C 29.5 18.6151413690476  28.875 18.3035714285714  28.125 18.3035714285714  C 27.40625 18.3035714285714  26.7890625 18.6104910714286  26.2734375 19.2243303571429  C 25.7578125 19.8381696428571  25.5 20.5729166666667  25.5 21.4285714285714  L 25.5 23.2142857142857  L 24.75 23.2142857142857  L 24.75 20.703125  C 24.75 19.6800595238095  24.4609375 18.8011532738095  23.8828125 18.06640625  C 23.3046875 17.3316592261905  22.59375 16.9642857142857  21.75 16.9642857142857  C 20.921875 16.9642857142857  20.21484375 17.3130580357143  19.62890625 18.0106026785714  C 19.04296875 18.7081473214286  18.75 19.5498511904762  18.75 20.5357142857143  L 18.75 23.2142857142857  L 18 23.2142857142857  L 18 7.31026785714286  C 18 6.28720238095238  17.7109375 5.40829613095238  17.1328125 4.67354910714286  Z M 10.7578125 2.09263392857143  C 11.9296875 0.697544642857145  13.34375 0  15 0  C 16.671875 0  18.08984375 0.720796130952384  19.25390625 2.16238839285715  C 20.41796875 3.6039806547619  21 5.31994047619047  21 7.31026785714286  L 21 13.4486607142857  C 21.34375 13.4114583333333  21.59375 13.3928571428571  21.75 13.3928571428571  C 23.296875 13.3928571428571  24.6484375 14.0345982142857  25.8046875 15.3180803571429  C 26.5390625 14.9274553571429  27.3125 14.7321428571429  28.125 14.7321428571429  C 29.890625 14.7321428571429  31.328125 15.5412946428571  32.4375 17.1595982142857  C 32.859375 17.0293898809524  33.296875 16.9642857142857  33.75 16.9642857142857  C 35.21875 16.9642857142857  36.4609375 17.5920758928571  37.4765625 18.84765625  C 38.4921875 20.1032366071429  39 21.6052827380952  39 23.3537946428571  L 39 29.4084821428571  C 39 31.5662202380952  38.78125 33.6588541666667  38.34375 35.6863839285714  L 36.1875 45.9542410714286  C 35.9375 47.1447172619048  35.40625 48.1166294642857  34.59375 48.8699776785714  C 33.78125 49.6233258928571  32.859375 50  31.828125 50  L 15 50  C 14.0625 50  13.16796875 49.7442336309524  12.31640625 49.2327008928571  C 11.46484375 48.7211681547619  10.7578125 48.0282738095238  10.1953125 47.1540178571429  L 1.1953125 32.8683035714286  C 0.3984375 31.6034226190476  0 30.171130952381  0 28.5714285714286  C 0 26.6183035714286  0.58203125 24.9395461309524  1.74609375 23.53515625  C 2.91015625 22.1307663690476  4.3125 21.4285714285714  5.953125 21.4285714285714  C 7.0625 21.4285714285714  8.078125 21.7540922619048  9 22.4051339285714  L 9 7.14285714285715  C 9 5.17113095238095  9.5859375 3.48772321428572  10.7578125 2.09263392857143  Z M 18 39.2857142857143  L 18 28.5714285714286  L 18 39.2857142857143  Z M 23 39.2857142857143  L 24 39.2857142857143  L 24 28.5714285714286  L 23 28.5714285714286  L 23 39.2857142857143  Z M 29 39.2857142857143  L 30 39.2857142857143  L 30 28.5714285714286  L 29 28.5714285714286  L 29 39.2857142857143  Z " fill-rule="nonzero" fill="#000000" stroke="none" transform="matrix(1 0 0 1 322 3107 )" />
  </g>
</svg>