<?xml version="1.0" encoding="utf-8"?>
<svg version="1.1" xmlns:xlink="http://www.w3.org/1999/xlink" width="34px" height="52px" xmlns="http://www.w3.org/2000/svg">
  <g transform="matrix(1 0 0 1 -636 -3015 )">
    <path d="M 14.9362980769231 4.86049107142857  C 14.4322916666667 4.09635416666666  13.8125 3.71428571428571  13.0769230769231 3.71428571428571  C 12.354967948718 3.71428571428571  11.7385817307692 4.07700892857143  11.2277644230769 4.80245535714286  C 10.7169471153846 5.52790178571429  10.4615384615385 6.4032738095238  11 7.42857142857143  L 11 22.2857142857143  L 10.4615384615385 33.4285714285714  L 7.37620192307692 27.5669642857143  C 6.81770833333333 26.5223214285714  6.08894230769231 26  5.18990384615385 26  C 4.48157051282051 26  3.87540064102564 26.3675595238095  3.37139423076923 27.1026785714286  C 2.86738782051282 27.8377976190476  2.61538461538462 28.7083333333333  2.61538461538462 29.7142857142857  C 2.61538461538462 30.546130952381  2.79246794871795 31.2909226190476  3.14663461538462 31.9486607142857  L 10.9927884615385 46.8058035714286  C 11.5104166666667 47.7924107142857  12.2051282051282 48.2857142857143  13.0769230769231 48  L 27.7475961538462 48  C 28.0472756410256 48.2857142857143  28.3163060897436 48.1551339285714  28.5546875 47.8939732142857  C 28.7930689102564 47.6328125  28.9463141025641 47.2991071428571  29.0144230769231 46.8928571428571  L 30.8942307692308 36.2142857142857  C 31.2211538461538 34.3571428571429  31.3846153846154 32.4806547619048  31.3846153846154 30.5848214285714  L 31.3846153846154 24.2879464285714  C 31.3846153846154 23.4947916666667  31.1939102564103 22.8080357142857  30.8125 22.2276785714286  C 30.4310897435897 21.6473214285714  29.9679487179487 21.3571428571429  29.4230769230769 21.3571428571429  C 28.8782051282051 21.3571428571429  28.4150641025641 21.6279761904762  28.0336538461538 22.1696428571429  C 27.6522435897436 22.7113095238095  27.4615384615385 23.3690476190476  27.4615384615385 24.1428571428571  L 26.8076923076923 24.1428571428571  L 26.8076923076923 22.3727678571429  C 26.8076923076923 21.4441964285714  26.5897435897436 20.6558779761905  26.1538461538462 20.0078125  C 25.7179487179487 19.3597470238095  25.1730769230769 19.0357142857143  24.5192307692308 19.0357142857143  C 23.8926282051282 19.0357142857143  23.3545673076923 19.3549107142857  22.9050480769231 19.9933035714286  C 22.4555288461538 20.6316964285714  22.2307692307692 21.3958333333333  22.2307692307692 22.2857142857143  L 22.2307692307692 24.1428571428571  L 21.5769230769231 24.1428571428571  L 21.5769230769231 21.53125  C 21.5769230769231 20.4672619047619  21.3249198717949 19.5531994047619  20.8209134615385 18.7890625  C 20.3169070512821 18.0249255952381  19.6971153846154 17.6428571428571  18.9615384615385 17.6428571428571  C 18.2395833333333 17.6428571428571  17.6231971153846 18.0055803571429  17.1123798076923 18.7310267857143  C 16.6015625 19.4564732142857  16.3461538461538 20.3318452380952  16.3461538461538 21.3571428571429  L 16.3461538461538 24.1428571428571  L 16 24.1428571428571  L 16 7.60267857142857  C 15.6923076923077 6.53869047619047  15.4403044871795 5.62462797619047  14.9362980769231 4.86049107142857  Z M 9.37860576923077 2.17633928571429  C 10.4002403846154 0.725446428571431  11.6330128205128 0  13.0769230769231 0  C 14.5344551282051 0  15.7706330128205 0.749627976190479  16.7854567307692 2.24888392857143  C 17.800280448718 3.74813988095238  18.3076923076923 5.53273809523809  18.3076923076923 7.60267857142857  L 18.3076923076923 13.9866071428571  C 18.6073717948718 13.9479166666667  18.8253205128205 13.9285714285714  18.9615384615385 13.9285714285714  C 20.3100961538462 13.9285714285714  21.4883814102564 14.5959821428571  22.4963942307692 15.9308035714286  C 23.1366185897436 15.5245535714286  23.8108974358974 15.3214285714286  24.5192307692308 15.3214285714286  C 26.0584935897436 15.3214285714286  27.3116987179487 16.1629464285714  28.2788461538462 17.8459821428571  C 28.6466346153846 17.7105654761905  29.0280448717949 17.6428571428571  29.4230769230769 17.6428571428571  C 30.7035256410256 17.6428571428571  31.7864583333333 18.2957589285714  32.671875 19.6015625  C 33.5572916666667 20.9073660714286  34 22.469494047619  34 24.2879464285714  L 34 30.5848214285714  C 34 32.828869047619  33.8092948717949 35.0052083333333  33.4278846153846 37.1138392857143  L 31.5480769230769 47.7924107142857  C 31.3301282051282 49.0305059523809  30.8669871794872 50.0412946428571  30.1586538461538 50.8247767857143  C 29.4503205128205 51.6082589285714  28.6466346153846 52  27.7475961538462 52  L 13.0769230769231 52  C 12.2596153846154 52  11.4797676282051 51.7340029761905  10.7373798076923 51.2020089285714  C 9.99499198717949 50.6700148809524  9.37860576923077 49.9494047619048  8.88822115384615 49.0401785714286  L 1.04206730769231 34.1830357142857  C 0.347355769230769 32.8675595238095  0 31.3779761904762  0 29.7142857142857  C 0 27.6830357142857  0.507411858974359 25.9371279761905  1.52223557692308 24.4765625  C 2.53705929487179 23.0159970238095  3.75961538461538 22.2857142857143  5.18990384615385 22.2857142857143  C 6.15705128205128 22.2857142857143  7.04246794871795 22.624255952381  8 23.3013392857143  L 8 7.42857142857143  C 7.84615384615385 5.37797619047619  8.35697115384615 3.62723214285714  9.37860576923077 2.17633928571429  Z M 15 40.8571428571429  L 16 40.8571428571429  L 16 29.7142857142857  L 15 29.7142857142857  L 15 40.8571428571429  Z M 20 40.8571428571429  L 21 40.8571428571429  L 21 29.7142857142857  L 20 29.7142857142857  L 20 40.8571428571429  Z M 25 40.8571428571429  L 26 40.8571428571429  L 26 29.7142857142857  L 25 29.7142857142857  L 25 40.8571428571429  Z " fill-rule="nonzero" fill="#000000" stroke="none" transform="matrix(1 0 0 1 636 3015 )" />
  </g>
</svg>