<?xml version="1.0" encoding="utf-8"?>
<svg version="1.1" xmlns:xlink="http://www.w3.org/1999/xlink" width="56px" height="51px" xmlns="http://www.w3.org/2000/svg">
  <g transform="matrix(1 0 0 1 -340 -3835 )">
    <path d="M 24.6009615384615 4.76702008928571  C 23.7708333333333 4.017578125  22.75 3.64285714285714  21.5384615384615 3.64285714285714  C 20.349358974359 3.64285714285714  19.3341346153846 3.99860491071429  18.4927884615385 4.71010044642857  C 17.6514423076923 5.42159598214286  17.2307692307692 6.28013392857142  18 7.28571428571429  L 18 21.8571428571429  L 17.2307692307692 32.7857142857143  L 12.1490384615385 27.0368303571429  C 11.2291666666667 26.0122767857143  10.0288461538462 25.5  8.54807692307692 25.5  C 7.38141025641026 25.5  6.38301282051282 25.8604910714286  5.55288461538462 26.5814732142857  C 4.72275641025641 27.3024553571429  4.30769230769231 28.15625  4.30769230769231 29.1428571428571  C 4.30769230769231 29.9587053571429  4.59935897435898 30.6891741071429  5.18269230769231 31.3342633928571  L 18.1057692307692 45.9056919642857  C 18.9583333333333 46.8733258928571  20.1025641025641 47.3571428571429  21.5384615384615 47  L 45.7019230769231 47  C 46.1955128205128 47.3571428571429  46.6386217948718 47.2290736607143  47.03125 46.9729352678571  C 47.4238782051282 46.716796875  47.6762820512821 46.3895089285714  47.7884615384615 45.9910714285714  L 50.8846153846154 35.5178571428571  C 51.4230769230769 33.6964285714286  51.6923076923077 31.8560267857143  51.6923076923077 29.9966517857143  L 51.6923076923077 23.8208705357143  C 51.6923076923077 23.04296875  51.3782051282051 22.3694196428571  50.75 21.8002232142857  C 50.1217948717949 21.2310267857143  49.3589743589744 20.9464285714286  48.4615384615385 20.9464285714286  C 47.5641025641026 20.9464285714286  46.8012820512821 21.2120535714286  46.1730769230769 21.7433035714286  C 45.5448717948718 22.2745535714286  45.2307692307692 22.9196428571429  45.2307692307692 23.6785714285714  L 44.1538461538462 23.6785714285714  L 44.1538461538462 21.9425223214286  C 44.1538461538462 21.0318080357143  43.7948717948718 20.2586495535714  43.0769230769231 19.623046875  C 42.3589743589744 18.9874441964286  41.4615384615385 18.6696428571429  40.3846153846154 18.6696428571429  C 39.3525641025641 18.6696428571429  38.4663461538462 18.9827008928571  37.7259615384615 19.6088169642857  C 36.9855769230769 20.2349330357143  36.6153846153846 20.984375  36.6153846153846 21.8571428571429  L 36.6153846153846 23.6785714285714  L 35.5384615384615 23.6785714285714  L 35.5384615384615 21.1171875  C 35.5384615384615 20.0736607142857  35.1233974358974 19.1771763392857  34.2932692307692 18.427734375  C 33.463141025641 17.6782924107143  32.4423076923077 17.3035714285714  31.2307692307692 17.3035714285714  C 30.0416666666667 17.3035714285714  29.0264423076923 17.6593191964286  28.1850961538462 18.3708147321429  C 27.34375 19.0823102678571  26.9230769230769 19.9408482142857  26.9230769230769 20.9464285714286  L 26.9230769230769 23.6785714285714  L 26 23.6785714285714  L 26 7.45647321428571  C 25.8461538461538 6.41294642857143  25.4310897435897 5.51646205357143  24.6009615384615 4.76702008928571  Z M 15.4471153846154 2.13448660714286  C 17.1298076923077 0.711495535714288  19.1602564102564 0  21.5384615384615 0  C 23.9391025641026 0  25.9751602564103 0.735212053571431  27.6466346153846 2.20563616071429  C 29.318108974359 3.67606026785714  30.1538461538462 5.42633928571428  30.1538461538462 7.45647321428571  L 30.1538461538462 13.7176339285714  C 30.6474358974359 13.6796875  31.0064102564103 13.6607142857143  31.2307692307692 13.6607142857143  C 33.4519230769231 13.6607142857143  35.3926282051282 14.3152901785714  37.0528846153846 15.6244419642857  C 38.1073717948718 15.2260044642857  39.2179487179487 15.0267857142857  40.3846153846154 15.0267857142857  C 42.9198717948718 15.0267857142857  44.9839743589744 15.8521205357143  46.5769230769231 17.5027901785714  C 47.1826923076923 17.3699776785714  47.8108974358974 17.3035714285714  48.4615384615385 17.3035714285714  C 50.5705128205128 17.3035714285714  52.3541666666667 17.9439174107143  53.8125 19.224609375  C 55.2708333333333 20.5053013392857  56 22.0373883928571  56 23.8208705357143  L 56 29.9966517857143  C 56 32.1975446428571  55.6858974358974 34.33203125  55.0576923076923 36.4001116071429  L 51.9615384615385 46.8733258928571  C 51.6025641025641 48.0876116071429  50.8397435897436 49.0789620535714  49.6730769230769 49.8473772321429  C 48.5064102564103 50.6157924107143  47.1826923076923 51  45.7019230769231 51  L 21.5384615384615 51  C 20.1923076923077 51  18.9078525641026 50.7391183035714  17.6850961538462 50.2173549107143  C 16.4623397435897 49.6955915178571  15.4471153846154 48.9888392857143  14.6394230769231 48.0970982142857  L 1.71634615384615 33.5256696428571  C 0.572115384615385 32.2354910714286  0 30.7745535714286  0 29.1428571428571  C 0 27.1506696428571  0.835737179487179 25.4383370535714  2.50721153846154 24.005859375  C 4.1786858974359 22.5733816964286  6.19230769230769 21.8571428571429  8.54807692307692 21.8571428571429  C 10.1410256410256 21.8571428571429  11.599358974359 22.1891741071429  13 22.8532366071429  L 13 7.28571428571429  C 12.9230769230769 5.27455357142857  13.7644230769231 3.55747767857143  15.4471153846154 2.13448660714286  Z M 25 40.0714285714286  L 26 40.0714285714286  L 26 29.1428571428571  L 25 29.1428571428571  L 25 40.0714285714286  Z M 33 40.0714285714286  L 34 40.0714285714286  L 34 29.1428571428571  L 33 29.1428571428571  L 33 40.0714285714286  Z M 42 40.0714285714286  L 43 40.0714285714286  L 43 29.1428571428571  L 42 29.1428571428571  L 42 40.0714285714286  Z " fill-rule="nonzero" fill="#000000" stroke="none" transform="matrix(1 0 0 1 340 3835 )" />
  </g>
</svg>