<?xml version="1.0" encoding="utf-8"?>
<svg version="1.1" xmlns:xlink="http://www.w3.org/1999/xlink" width="43px" height="52px" xmlns="http://www.w3.org/2000/svg">
  <g transform="matrix(1 0 0 1 -326 -4484 )">
    <path d="M 18.8900240384615 4.86049107142857  C 18.2526041666667 4.09635416666666  17.46875 3.71428571428571  16.5384615384615 3.71428571428571  C 15.6254006410256 3.71428571428571  14.8458533653846 4.07700892857143  14.1998197115385 4.80245535714286  C 13.5537860576923 5.52790178571429  13.2307692307692 6.4032738095238  14 7.42857142857143  L 14 22.2857142857143  L 13.2307692307692 33.4285714285714  L 9.32872596153846 27.5669642857143  C 8.62239583333333 26.5223214285714  7.70072115384615 26  6.56370192307692 26  C 5.66786858974359 26  4.90124198717949 26.3675595238095  4.26382211538462 27.1026785714286  C 3.62640224358974 27.8377976190476  3.30769230769231 28.7083333333333  3.30769230769231 29.7142857142857  C 3.30769230769231 30.546130952381  3.53165064102564 31.2909226190476  3.97956730769231 31.9486607142857  L 13.9026442307692 46.8058035714286  C 14.5572916666667 47.7924107142857  15.4358974358974 48.2857142857143  16.5384615384615 48  L 35.0925480769231 48  C 35.4715544871795 48.2857142857143  35.8117988782051 48.1551339285714  36.11328125 47.8939732142857  C 36.4147636217949 47.6328125  36.6085737179487 47.2991071428571  36.6947115384615 46.8928571428571  L 39.0721153846154 36.2142857142857  C 39.4855769230769 34.3571428571429  39.6923076923077 32.4806547619048  39.6923076923077 30.5848214285714  L 39.6923076923077 24.2879464285714  C 39.6923076923077 23.4947916666667  39.4511217948718 22.8080357142857  38.96875 22.2276785714286  C 38.4863782051282 21.6473214285714  37.900641025641 21.3571428571429  37.2115384615385 21.3571428571429  C 36.5224358974359 21.3571428571429  35.9366987179487 21.6279761904762  35.4543269230769 22.1696428571429  C 34.9719551282051 22.7113095238095  34.7307692307692 23.3690476190476  34.7307692307692 24.1428571428571  L 33.9038461538462 24.1428571428571  L 33.9038461538462 22.3727678571429  C 33.9038461538462 21.4441964285714  33.6282051282051 20.6558779761905  33.0769230769231 20.0078125  C 32.525641025641 19.3597470238095  31.8365384615385 19.0357142857143  31.0096153846154 19.0357142857143  C 30.2171474358974 19.0357142857143  29.5366586538462 19.3549107142857  28.9681490384615 19.9933035714286  C 28.3996394230769 20.6316964285714  28.1153846153846 21.3958333333333  28.1153846153846 22.2857142857143  L 28.1153846153846 24.1428571428571  L 27.2884615384615 24.1428571428571  L 27.2884615384615 21.53125  C 27.2884615384615 20.4672619047619  26.9697516025641 19.5531994047619  26.3323317307692 18.7890625  C 25.6949118589744 18.0249255952381  24.9110576923077 17.6428571428571  23.9807692307692 17.6428571428571  C 23.0677083333333 17.6428571428571  22.2881610576923 18.0055803571429  21.6421274038462 18.7310267857143  C 20.99609375 19.4564732142857  20.6730769230769 20.3318452380952  20.6730769230769 21.3571428571429  L 20.6730769230769 24.1428571428571  L 20 24.1428571428571  L 20 7.60267857142857  C 19.8461538461538 6.53869047619047  19.5274439102564 5.62462797619047  18.8900240384615 4.86049107142857  Z M 11.8611778846154 2.17633928571429  C 13.1532451923077 0.725446428571431  14.7123397435897 0  16.5384615384615 0  C 18.3818108974359 0  19.9452123397436 0.749627976190479  21.2286658653846 2.24888392857143  C 22.5121193910256 3.74813988095238  23.1538461538462 5.53273809523809  23.1538461538462 7.60267857142857  L 23.1538461538462 13.9866071428571  C 23.5328525641026 13.9479166666667  23.8084935897436 13.9285714285714  23.9807692307692 13.9285714285714  C 25.6862980769231 13.9285714285714  27.1764823717949 14.5959821428571  28.4513221153846 15.9308035714286  C 29.2610176282051 15.5245535714286  30.1137820512821 15.3214285714286  31.0096153846154 15.3214285714286  C 32.9563301282051 15.3214285714286  34.541266025641 16.1629464285714  35.7644230769231 17.8459821428571  C 36.2295673076923 17.7105654761905  36.7119391025641 17.6428571428571  37.2115384615385 17.6428571428571  C 38.8309294871795 17.6428571428571  40.2005208333333 18.2957589285714  41.3203125 19.6015625  C 42.4401041666667 20.9073660714286  43 22.469494047619  43 24.2879464285714  L 43 30.5848214285714  C 43 32.828869047619  42.7588141025641 35.0052083333333  42.2764423076923 37.1138392857143  L 39.8990384615385 47.7924107142857  C 39.6233974358974 49.0305059523809  39.0376602564103 50.0412946428571  38.1418269230769 50.8247767857143  C 37.2459935897436 51.6082589285714  36.2295673076923 52  35.0925480769231 52  L 16.5384615384615 52  C 15.5048076923077 52  14.5185296474359 51.7340029761905  13.5796274038462 51.2020089285714  C 12.6407251602564 50.6700148809524  11.8611778846154 49.9494047619048  11.2409855769231 49.0401785714286  L 1.31790865384615 34.1830357142857  C 0.439302884615385 32.8675595238095  0 31.3779761904762  0 29.7142857142857  C 0 27.6830357142857  0.641726762820513 25.9371279761905  1.92518028846154 24.4765625  C 3.20863381410256 23.0159970238095  4.75480769230769 22.2857142857143  6.56370192307692 22.2857142857143  C 7.78685897435898 22.2857142857143  8.90665064102564 22.624255952381  10 23.3013392857143  L 10 7.42857142857143  C 9.92307692307692 5.37797619047619  10.5691105769231 3.62723214285714  11.8611778846154 2.17633928571429  Z M 19 40.8571428571429  L 20 40.8571428571429  L 20 29.7142857142857  L 19 29.7142857142857  L 19 40.8571428571429  Z M 25 40.8571428571429  L 26 40.8571428571429  L 26 29.7142857142857  L 25 29.7142857142857  L 25 40.8571428571429  Z M 32 40.8571428571429  L 33 40.8571428571429  L 33 29.7142857142857  L 32 29.7142857142857  L 32 40.8571428571429  Z " fill-rule="nonzero" fill="#000000" stroke="none" transform="matrix(1 0 0 1 326 4484 )" />
  </g>
</svg>