<?xml version="1.0" encoding="utf-8"?>
<svg version="1.1" xmlns:xlink="http://www.w3.org/1999/xlink" width="7px" height="11px" xmlns="http://www.w3.org/2000/svg">
  <g transform="matrix(1 0 0 1 -651 -4952 )">
    <path d="M 7 5.5  C 7 5.61827956989247  6.95720720720721 5.72063688999173  6.87162162162162 5.80707196029777  L 1.85810810810811 10.8703473945409  C 1.77252252252252 10.956782464847  1.67117117117117 11  1.55405405405405 11  C 1.43693693693694 11  1.33558558558559 10.956782464847  1.25 10.8703473945409  L 0.128378378378378 9.73759305210918  C 0.0427927927927929 9.65115798180314  0 9.54880066170389  0 9.43052109181141  C 0 9.31224152191894  0.0427927927927929 9.20988420181969  0.128378378378378 9.12344913151365  L 3.71621621621622 5.5  L 0.128378378378378 1.87655086848635  C 0.0427927927927929 1.79011579818031  0 1.68775847808106  0 1.56947890818859  C 0 1.45119933829611  0.0427927927927929 1.34884201819686  0.128378378378378 1.26240694789082  L 1.25 0.129652605459057  C 1.33558558558559 0.0432175351530185  1.43693693693694 0  1.55405405405405 0  C 1.67117117117117 0  1.77252252252252 0.0432175351530185  1.85810810810811 0.129652605459057  L 6.87162162162162 5.19292803970223  C 6.95720720720721 5.27936311000827  7 5.38172043010753  7 5.5  Z " fill-rule="nonzero" fill="#aaaaaa" stroke="none" transform="matrix(1 0 0 1 651 4952 )" />
  </g>
</svg>