<?xml version="1.0" encoding="utf-8"?>
<svg version="1.1" xmlns:xlink="http://www.w3.org/1999/xlink" width="7px" height="15px" xmlns="http://www.w3.org/2000/svg">
  <g transform="matrix(1 0 0 1 -445 -4948 )">
    <path d="M 7 7.5  C 7 7.66129032258065  6.95720720720721 7.80086848635236  6.87162162162162 7.91873449131514  L 1.85810810810811 14.8232009925558  C 1.77252252252252 14.9410669975186  1.67117117117117 15  1.55405405405405 15  C 1.43693693693694 15  1.33558558558559 14.9410669975186  1.25 14.8232009925558  L 0.128378378378378 13.2785359801489  C 0.0427927927927929 13.1606699751861  0 13.0210918114144  0 12.8598014888337  C 0 12.6985111662531  0.0427927927927929 12.5589330024814  0.128378378378378 12.4410669975186  L 3.71621621621622 7.5  L 0.128378378378378 2.55893300248139  C 0.0427927927927929 2.44106699751861  0 2.3014888337469  0 2.14019851116625  C 0 1.97890818858561  0.0427927927927929 1.83933002481389  0.128378378378378 1.72146401985112  L 1.25 0.176799007444168  C 1.33558558558559 0.0589330024813889  1.43693693693694 0  1.55405405405405 0  C 1.67117117117117 0  1.77252252252252 0.0589330024813889  1.85810810810811 0.176799007444168  L 6.87162162162162 7.08126550868486  C 6.95720720720721 7.19913151364764  7 7.33870967741936  7 7.5  Z " fill-rule="nonzero" fill="#027db4" stroke="none" transform="matrix(1 0 0 1 445 4948 )" />
  </g>
</svg>