<?xml version="1.0" encoding="utf-8"?>
<svg version="1.1" xmlns:xlink="http://www.w3.org/1999/xlink" width="121px" height="121px" xmlns="http://www.w3.org/2000/svg">
  <g transform="matrix(1 0 0 1 -121 -1791 )">
    <path d="M 181.5 1791  C 215.38 1791  242 1817.62  242 1851.5  C 242 1885.38  215.38 1912  181.5 1912  C 147.62 1912  121 1885.38  121 1851.5  C 121 1817.62  147.62 1791  181.5 1791  Z " fill-rule="nonzero" fill="#ffffff" stroke="none" fill-opacity="0" />
    <path d="M 181.5 1791.5  C 215.1 1791.5  241.5 1817.9  241.5 1851.5  C 241.5 1885.1  215.1 1911.5  181.5 1911.5  C 147.9 1911.5  121.5 1885.1  121.5 1851.5  C 121.5 1817.9  147.9 1791.5  181.5 1791.5  Z " stroke-width="1" stroke="#797979" fill="none" />
  </g>
</svg>