<?xml version="1.0" encoding="utf-8"?>
<svg version="1.1" xmlns:xlink="http://www.w3.org/1999/xlink" width="41px" height="41px" xmlns="http://www.w3.org/2000/svg">
  <g transform="matrix(1 0 0 1 -254 -880 )">
    <path d="M 31.951171875 23.4095052083333  C 32.2892795138889 23.0713975694444  32.4583333333333 22.6710069444444  32.4583333333333 22.2083333333333  L 32.4583333333333 18.7916666666667  C 32.4583333333333 18.3289930555556  32.2892795138889 17.9286024305556  31.951171875 17.5904947916667  C 31.6130642361111 17.2523871527778  31.2126736111111 17.0833333333333  30.75 17.0833333333333  L 23.9166666666667 17.0833333333333  L 23.9166666666667 10.25  C 23.9166666666667 9.78732638888889  23.7476128472222 9.38693576388889  23.4095052083333 9.048828125  C 23.0713975694444 8.71072048611111  22.6710069444444 8.54166666666667  22.2083333333333 8.54166666666667  L 18.7916666666667 8.54166666666667  C 18.3289930555556 8.54166666666667  17.9286024305556 8.71072048611111  17.5904947916667 9.048828125  C 17.2523871527778 9.38693576388889  17.0833333333333 9.78732638888889  17.0833333333333 10.25  L 17.0833333333333 17.0833333333333  L 10.25 17.0833333333333  C 9.78732638888889 17.0833333333333  9.38693576388889 17.2523871527778  9.048828125 17.5904947916667  C 8.71072048611111 17.9286024305556  8.54166666666667 18.3289930555556  8.54166666666667 18.7916666666667  L 8.54166666666667 22.2083333333333  C 8.54166666666667 22.6710069444444  8.71072048611111 23.0713975694444  9.048828125 23.4095052083333  C 9.38693576388889 23.7476128472222  9.78732638888889 23.9166666666667  10.25 23.9166666666667  L 17.0833333333333 23.9166666666667  L 17.0833333333333 30.75  C 17.0833333333333 31.2126736111111  17.2523871527778 31.6130642361111  17.5904947916667 31.951171875  C 17.9286024305556 32.2892795138889  18.3289930555556 32.4583333333333  18.7916666666667 32.4583333333333  L 22.2083333333333 32.4583333333333  C 22.6710069444444 32.4583333333333  23.0713975694444 32.2892795138889  23.4095052083333 31.951171875  C 23.7476128472222 31.6130642361111  23.9166666666667 31.2126736111111  23.9166666666667 30.75  L 23.9166666666667 23.9166666666667  L 30.75 23.9166666666667  C 31.2126736111111 23.9166666666667  31.6130642361111 23.7476128472222  31.951171875 23.4095052083333  Z M 38.2506510416667 10.2099609375  C 40.0835503472222 13.3508029513889  41 16.7808159722222  41 20.5  C 41 24.2191840277778  40.0835503472222 27.6491970486111  38.2506510416667 30.7900390625  C 36.4177517361111 33.9308810763889  33.9308810763889 36.4177517361111  30.7900390625 38.2506510416667  C 27.6491970486111 40.0835503472222  24.2191840277778 41  20.5 41  C 16.7808159722222 41  13.3508029513889 40.0835503472222  10.2099609375 38.2506510416667  C 7.06911892361111 36.4177517361111  4.58224826388889 33.9308810763889  2.74934895833333 30.7900390625  C 0.916449652777778 27.6491970486111  0 24.2191840277778  0 20.5  C 0 16.7808159722222  0.916449652777778 13.3508029513889  2.74934895833333 10.2099609375  C 4.58224826388889 7.06911892361111  7.06911892361111 4.58224826388888  10.2099609375 2.74934895833333  C 13.3508029513889 0.916449652777774  16.7808159722222 0  20.5 0  C 24.2191840277778 0  27.6491970486111 0.916449652777774  30.7900390625 2.74934895833333  C 33.9308810763889 4.58224826388888  36.4177517361111 7.06911892361111  38.2506510416667 10.2099609375  Z " fill-rule="nonzero" fill="#0000bf" stroke="none" transform="matrix(1 0 0 1 254 880 )" />
  </g>
</svg>